<?xml version="1.0" ?><svg width="80px" height="80px" viewBox="0 0 80 80" enable-background="new 0 0 80 80" id="Layer_1" version="1.1" xml:space="preserve" xmlns="http://www.w3.org/2000/svg" xmlns:xlink="http://www.w3.org/1999/xlink"><g><path d="M71,51c2.209,0,4-1.791,4-4   V17c0-2.209-1.791-4-4-4H9c-2.209,0-4,1.791-4,4v30c0,2.209,1.791,4,4,4H71z" fill="none" stroke="#000000" stroke-linecap="round" stroke-miterlimit="10" stroke-width="4"/><line fill="none" stroke="#000000" stroke-linecap="round" stroke-miterlimit="10" stroke-width="4" x1="28" x2="28" y1="19" y2="45"/><line fill="none" stroke="#000000" stroke-linecap="round" stroke-miterlimit="10" stroke-width="4" x1="52" x2="52" y1="19" y2="45"/><line fill="none" stroke="#000000" stroke-linecap="round" stroke-miterlimit="10" stroke-width="4" x1="11" x2="69" y1="32" y2="32"/><g><path d="    M54,62H20c-2.209,0-4-1.791-4-4v-7" fill="none" stroke="#000000" stroke-linecap="round" stroke-linejoin="round" stroke-miterlimit="10" stroke-width="4"/><g><path d="     M57,57h1c1.657,0,3,1.343,3,3v4c0,1.657-1.343,3-3,3h-1c-1.657,0-3-1.343-3-3v-4C54,58.343,55.343,57,57,57z" fill="none" stroke="#000000" stroke-linecap="round" stroke-linejoin="round" stroke-miterlimit="10" stroke-width="4"/><line fill="none" stroke="#000000" stroke-linecap="round" stroke-linejoin="round" stroke-miterlimit="10" stroke-width="4" x1="64" x2="60.829" y1="59" y2="59"/><line fill="none" stroke="#000000" stroke-linecap="round" stroke-linejoin="round" stroke-miterlimit="10" stroke-width="4" x1="64" x2="60.829" y1="65" y2="65"/></g></g></g></svg>